<svg width="32" height="37" viewBox="0 0 32 37" fill="none" xmlns="http://www.w3.org/2000/svg">
<circle cx="16" cy="16.8755" r="15.5" stroke="#2E7D32"/>
<circle cx="23.5" cy="12.3755" r="3" stroke="#2E7D32"/>
<path d="M15.5 2.87549C17.433 2.87549 19 4.44249 19 6.37549C19 8.13869 17.6961 9.5967 16 9.83936V28.8755H15V9.83936C13.3039 9.5967 12 8.13869 12 6.37549C12 4.44249 13.567 2.87549 15.5 2.87549ZM15.5 3.87549C14.1193 3.87549 13 4.99478 13 6.37549C13 7.7562 14.1193 8.87549 15.5 8.87549C16.8807 8.87549 18 7.7562 18 6.37549C18 4.99478 16.8807 3.87549 15.5 3.87549Z" fill="#2E7D32"/>
<line x1="21.2774" y1="14.2915" x2="15.2773" y2="18.2915" stroke="#2E7D32"/>
<path d="M7.5 12.8755C9.433 12.8755 11 14.4425 11 16.3755C11 16.694 10.9557 17.0021 10.876 17.2954L15.625 21.0952L15 21.8755L10.459 18.2427C9.83883 19.2234 8.74615 19.8755 7.5 19.8755C5.567 19.8755 4 18.3085 4 16.3755C4 14.4425 5.567 12.8755 7.5 12.8755ZM7.5 13.8755C6.11929 13.8755 5 14.9948 5 16.3755C5 17.7562 6.11929 18.8755 7.5 18.8755C8.88071 18.8755 10 17.7562 10 16.3755C10 14.9948 8.88071 13.8755 7.5 13.8755Z" fill="#2E7D32"/>
<path d="M3.0568 23.7511C8.6064 21.8587 14.7148 24.6539 16.874 30.1684L17.3472 31.3769C11.7977 33.2693 5.68958 30.4749 3.53036 24.9606L3.0568 23.7511Z" fill="#78FF7F" stroke="#2E7D32"/>
<path d="M11.8925 28.7056C13.764 29.0236 15.5546 29.7069 17.1622 30.7165L17.5365 30.9516L17.1803 31.8469C15.1738 30.4273 12.9737 29.3034 10.6475 28.5098L10.5201 28.4664L11.8925 28.7056Z" fill="#2E7D32"/>
<path d="M30.3434 21.9681C24.3399 19.7773 17.7812 22.641 15.3201 28.562L15.2039 28.854L14.1609 31.552C20.6264 33.3872 27.3424 30.0122 29.7205 23.638L30.3434 21.9681Z" fill="#78FF7F" stroke="#2E7D32"/>
<path d="M22.8255 25.8777L22.5796 25.9941C19.7831 27.3178 17.2369 29.1407 15.0625 31.3756L16.1225 31.3755C18.1049 29.4013 20.4234 27.8129 22.9614 26.69L30.4528 23.3755L30.9834 22.3756L22.8255 25.8777Z" fill="#2E7D32"/>
<path d="M24.0847 27.8755C22.639 28.5457 21.3251 29.4828 20.2101 30.6391L19.5 31.3755L20.5 31.3755C22.1507 29.7491 24.2006 28.6083 26.4284 28.0763L27.2692 27.8755L27.4582 27.339L24.0847 27.8755Z" fill="#2E7D32"/>
</svg>
