<svg width="32" height="36" viewBox="0 0 32 36" fill="none" xmlns="http://www.w3.org/2000/svg">
<circle cx="16" cy="16" r="15.5" stroke="#F4F4F4"/>
<circle cx="23.5" cy="11.5" r="3" stroke="#F4F4F4"/>
<path d="M15.5 2C17.433 2 19 3.567 19 5.5C19 7.2632 17.6961 8.72121 16 8.96387V28H15V8.96387C13.3039 8.72121 12 7.2632 12 5.5C12 3.567 13.567 2 15.5 2ZM15.5 3C14.1193 3 13 4.11929 13 5.5C13 6.88071 14.1193 8 15.5 8C16.8807 8 18 6.88071 18 5.5C18 4.11929 16.8807 3 15.5 3Z" fill="#F4F4F4"/>
<line x1="21.2774" y1="13.416" x2="15.2773" y2="17.416" stroke="#F4F4F4"/>
<path d="M7.5 12C9.433 12 11 13.567 11 15.5C11 15.8185 10.9557 16.1266 10.876 16.4199L15.625 20.2197L15 21L10.459 17.3672C9.83883 18.3479 8.74615 19 7.5 19C5.567 19 4 17.433 4 15.5C4 13.567 5.567 12 7.5 12ZM7.5 13C6.11929 13 5 14.1193 5 15.5C5 16.8807 6.11929 18 7.5 18C8.88071 18 10 16.8807 10 15.5C10 14.1193 8.88071 13 7.5 13Z" fill="#F4F4F4"/>
<path d="M3.11915 22.8554C8.17049 21.2122 13.6039 24.0993 15.0661 29.2101L15.1992 29.7295L15.4004 30.6209C11.2077 31.4569 6.9339 29.5553 4.75118 25.8744L4.53885 25.4982L3.11915 22.8554Z" stroke="#F4F4F4"/>
<path d="M9.89263 27.8298C11.7641 28.1478 13.5547 28.8312 15.1623 29.8408L15.5366 30.0759L15.1804 30.9712C13.1739 29.5515 10.9738 28.4277 8.64756 27.6341L8.52015 27.5906L9.89263 27.8298Z" fill="#F4F4F4"/>
<path d="M30.2873 21.0727C23.9083 18.7906 17.057 22.4537 15.3918 29.0888L15.3146 29.4159L14.9444 31.0841C20.6804 31.6371 26.1387 28.7583 28.947 23.6993L29.2186 23.1862L30.2873 21.0727Z" stroke="#F4F4F4"/>
<path d="M22.8255 25.0022L22.5796 25.1186C19.7831 26.4423 17.2369 28.2652 15.0625 30.5001L16.1225 30.5C18.1049 28.5258 20.4234 26.9374 22.9614 25.8145L30.4528 22.5L30.9834 21.5001L22.8255 25.0022Z" fill="#F4F4F4"/>
<path d="M24.0847 27C22.639 27.6702 21.3251 28.6073 20.2101 29.7637L19.5 30.5L20.5 30.5C22.1507 28.8736 24.2006 27.7329 26.4284 27.2008L27.2692 27L27.4582 26.4636L24.0847 27Z" fill="#F4F4F4"/>
</svg>
