<svg width="19" height="21" viewBox="0 0 19 21" fill="none" xmlns="http://www.w3.org/2000/svg">
<g id="Vector">
<g id="Vector_2">
<path d="M17.7396 19.5824C18.3349 19.4484 18.6895 18.7756 18.3937 18.2017C17.7415 16.9365 16.7142 15.8248 15.4 14.9776C13.7073 13.8864 11.6335 13.295 9.5 13.295C7.36652 13.295 5.29265 13.8864 3.60005 14.9776C2.28581 15.8248 1.25846 16.9365 0.606336 18.2017C0.310526 18.7756 0.665066 19.4484 1.26037 19.5824C6.69507 20.8059 12.3049 20.8059 17.7396 19.5824Z" fill="#212121"/>
<path d="M14.8843 6.31591C14.8843 9.52795 12.4737 12.1318 9.50003 12.1318C6.52636 12.1318 4.11573 9.52795 4.11573 6.31591C4.11573 3.10387 6.52636 0.5 9.50003 0.5C12.4737 0.5 14.8843 3.10387 14.8843 6.31591Z" fill="#212121"/>
</g>
</g>
</svg>
