<svg width="24" height="24" viewBox="0 0 24 24" fill="none" xmlns="http://www.w3.org/2000/svg">
<g id="Vector">
<g id="Vector_2">
<path d="M12 23L2.2925 17.5527C1.66066 17.1981 1.34473 17.0209 1.17237 16.7416C1 16.4624 1 16.1279 1 15.459V6.95129L10.5425 1.59658C11.2513 1.19886 11.6057 1 12 1C12.3943 1 12.7487 1.19886 13.4575 1.59658L23 6.95129V15.459C23 16.1279 23 16.4624 22.8276 16.7416C22.6553 17.0209 22.3393 17.1981 21.7075 17.5527L12 23Z" fill="#F4F4F4"/>
<path d="M12 23L11.5106 23.8721C11.8146 24.0426 12.1854 24.0426 12.4894 23.8721L12 23ZM2.2925 17.5527L1.80314 18.4248H1.80314L2.2925 17.5527ZM1 6.95129L0.510638 6.07921C0.195256 6.25619 0 6.58965 0 6.95129H1ZM23 6.95129H24C24 6.58965 23.8047 6.25619 23.4894 6.07921L23 6.95129ZM13.4575 1.59658L13.9469 0.7245L13.9469 0.7245L13.4575 1.59658ZM21.7075 17.5527L21.2181 16.6806L21.7075 17.5527ZM10.5425 1.59658L10.0531 0.7245V0.724501L10.5425 1.59658ZM1.17237 16.7416L0.321444 17.2669H0.321444L1.17237 16.7416ZM16.2075 9.31231L16.6969 8.44022L16.2075 9.31231ZM16.5 14.9756C16.5 15.5279 16.9477 15.9756 17.5 15.9756C18.0523 15.9756 18.5 15.5279 18.5 14.9756H16.5ZM17.3276 10.1234L18.1786 9.59807L18.1786 9.59807L17.3276 10.1234ZM12 23H13V13.1239H12H11V23H12ZM12 23L12.4894 22.1279L2.78186 16.6806L2.2925 17.5527L1.80314 18.4248L11.5106 23.8721L12 23ZM1 15.459H2V6.95129H1H0V15.459H1ZM1 6.95129L0.510638 7.82338L11.5106 13.996L12 13.1239L12.4894 12.2518L1.48936 6.07921L1 6.95129ZM23 6.95129H22V15.459H23H24V6.95129H23ZM23 6.95129L23.4894 6.07921L13.9469 0.7245L13.4575 1.59658L12.9681 2.46866L22.5106 7.82338L23 6.95129ZM10.5425 1.59658L10.0531 0.724501L0.510638 6.07921L1 6.95129L1.48936 7.82338L11.0319 2.46866L10.5425 1.59658ZM23 6.95129L22.5106 6.07921L11.5106 12.2518L12 13.1239L12.4894 13.996L23.4894 7.82338L23 6.95129ZM13.4575 1.59658L13.9469 0.7245C13.6092 0.535026 13.2944 0.357118 13.0128 0.233498C12.7104 0.100726 12.3819 0 12 0V1V2C12.0124 2 12.0583 1.9987 12.2089 2.06479C12.3802 2.14003 12.597 2.26041 12.9681 2.46866L13.4575 1.59658ZM10.5425 1.59658L11.0319 2.46866C11.403 2.26041 11.6198 2.14003 11.7911 2.06479C11.9417 1.9987 11.9876 2 12 2V1V0C11.6181 0 11.2896 0.100726 10.9872 0.233498C10.7056 0.357118 10.3908 0.535027 10.0531 0.7245L10.5425 1.59658ZM23 15.459H22C22 15.8144 21.9987 16.0034 21.9841 16.1405C21.9722 16.2516 21.9587 16.2456 21.9767 16.2164L22.8276 16.7416L23.6786 17.2669C23.869 16.9585 23.9416 16.6456 23.9728 16.3525C24.0013 16.0852 24 15.7725 24 15.459H23ZM21.7075 17.5527L22.1969 18.4248C22.4968 18.2565 22.7808 18.0982 23.0068 17.9427C23.2471 17.7773 23.4917 17.5697 23.6786 17.2669L22.8276 16.7416L21.9767 16.2164C21.9912 16.1928 21.9916 16.2135 21.8729 16.2952C21.7399 16.3867 21.55 16.4944 21.2181 16.6806L21.7075 17.5527ZM2.2925 17.5527L2.78186 16.6806C2.44998 16.4944 2.26011 16.3867 2.12707 16.2952C2.00836 16.2135 2.00877 16.1928 2.02329 16.2164L1.17237 16.7416L0.321444 17.2669C0.508328 17.5697 0.752887 17.7773 0.993198 17.9427C1.21917 18.0982 1.50319 18.2565 1.80314 18.4248L2.2925 17.5527ZM1 15.459H0C0 15.7725 -0.00130355 16.0852 0.0271781 16.3525C0.058423 16.6456 0.13102 16.9585 0.321444 17.2669L1.17237 16.7416L2.02329 16.2164C2.04135 16.2456 2.02776 16.2516 2.01591 16.1405C2.0013 16.0034 2 15.8144 2 15.459H1ZM6.5 3.86501L6.01064 4.73709L15.7181 10.1844L16.2075 9.31231L16.6969 8.44022L6.98936 2.99292L6.5 3.86501ZM17.5 14.9756H18.5V11.406H17.5H16.5V14.9756H17.5ZM16.2075 9.31231L15.7181 10.1844C16.05 10.3706 16.2399 10.4783 16.3729 10.5698C16.4916 10.6515 16.4912 10.6722 16.4767 10.6486L17.3276 10.1234L18.1786 9.59807C17.9917 9.29533 17.7471 9.08771 17.5068 8.92232C17.2808 8.7668 16.9968 8.60854 16.6969 8.44022L16.2075 9.31231ZM17.5 11.406H18.5C18.5 11.0925 18.5013 10.7798 18.4728 10.5126C18.4416 10.2194 18.369 9.90654 18.1786 9.59807L17.3276 10.1234L16.4767 10.6486C16.4587 10.6194 16.4722 10.6134 16.4841 10.7245C16.4987 10.8616 16.5 11.0506 16.5 11.406H17.5ZM21.7075 17.5527L21.2181 16.6806L11.5106 22.1279L12 23L12.4894 23.8721L22.1969 18.4248L21.7075 17.5527Z" fill="#6D4C41"/>
</g>
</g>
</svg>
