<svg width="14" height="18" viewBox="0 0 14 18" fill="none" xmlns="http://www.w3.org/2000/svg">
<path d="M7 13.5L6.29289 14.2071L7 14.9142L7.70711 14.2071L7 13.5ZM8 1.5C8 0.947715 7.55229 0.5 7 0.5C6.44772 0.5 6 0.947715 6 1.5L8 1.5ZM1 7.5L0.292893 8.20711L6.29289 14.2071L7 13.5L7.70711 12.7929L1.70711 6.79289L1 7.5ZM7 13.5L7.70711 14.2071L13.7071 8.20711L13 7.5L12.2929 6.79289L6.29289 12.7929L7 13.5ZM7 13.5H8V1.5L7 1.5L6 1.5L6 13.5H7ZM0 16.5L-6.81196e-08 17.5H14V16.5V15.5L6.81196e-08 15.5L0 16.5Z" fill="#212121"/>
</svg>
