<svg width="50" height="51" viewBox="0 0 50 51" fill="none" xmlns="http://www.w3.org/2000/svg">
<path d="M33.667 4.66699C34.5807 4.66699 35.3838 4.66692 36.0928 4.68359C35.4331 5.13368 35 5.89119 35 6.75V10.5H31.25C29.8693 10.5 28.75 11.6193 28.75 13C28.75 14.3807 29.8693 15.5 31.25 15.5H35V19.25L35.0127 19.5059C35.1408 20.7664 36.2057 21.75 37.5 21.75C38.8807 21.75 40 20.6307 40 19.25V15.5H41.667V38.333C41.667 42.1043 41.6667 43.9905 40.4951 45.1621C39.3236 46.3335 37.4378 46.333 33.667 46.333H16.333C12.5622 46.333 10.6764 46.3335 9.50488 45.1621C8.33331 43.9905 8.33301 42.1042 8.33301 38.333V12.667C8.33301 8.89575 8.33331 7.00946 9.50488 5.83789C10.6764 4.66651 12.5622 4.66699 16.333 4.66699H33.667ZM16.667 37C16.1147 37 15.667 37.4477 15.667 38C15.667 38.5523 16.1147 39 16.667 39H25L25.1025 38.9951C25.6067 38.9438 26 38.5177 26 38C26 37.4823 25.6067 37.0562 25.1025 37.0049L25 37H16.667ZM16.667 30.75C16.1147 30.75 15.667 31.1977 15.667 31.75C15.667 32.3023 16.1147 32.75 16.667 32.75H29.167L29.2695 32.7451C29.7735 32.6936 30.167 32.2676 30.167 31.75C30.167 31.2324 29.7735 30.8064 29.2695 30.7549L29.167 30.75H16.667ZM16.667 24.5C16.1147 24.5 15.667 24.9477 15.667 25.5C15.667 26.0523 16.1147 26.5 16.667 26.5H25L25.1025 26.4951C25.6067 26.4438 26 26.0177 26 25.5C26 24.9823 25.6067 24.5562 25.1025 24.5049L25 24.5H16.667ZM39.4121 5.14258C39.835 5.30946 40.1899 5.53268 40.4951 5.83789C41.4169 6.75963 41.6104 8.12375 41.6523 10.5H40V6.75C40 6.13727 39.778 5.57736 39.4121 5.14258Z" fill="#F4F4F4"/>
<path d="M37.5 6.75L37.5 19.25" stroke="#F4F4F4" stroke-width="2" stroke-linecap="round"/>
<path d="M43.75 13L31.25 13" stroke="#F4F4F4" stroke-width="2" stroke-linecap="round"/>
</svg>
