<svg width="26" height="25" viewBox="0 0 26 25" fill="none" xmlns="http://www.w3.org/2000/svg">
<g id="Setting_fill">
<path id="Subtract" d="M13.6572 2.0835C14.1473 2.0835 14.3931 2.08327 14.5889 2.17139C14.7804 2.25766 14.9401 2.40246 15.0449 2.58447C15.1519 2.77043 15.1759 3.01432 15.2246 3.50146C15.3169 4.42498 15.3631 4.8875 15.5742 5.12842C15.7792 5.36216 16.0814 5.48757 16.3916 5.46729C16.7113 5.44628 17.0706 5.15171 17.7891 4.56396C18.1684 4.25368 18.3581 4.09827 18.5654 4.04248C18.7683 3.98795 18.9833 3.99929 19.1797 4.07373C19.3805 4.14984 19.5539 4.32292 19.9004 4.66943L20.8311 5.6001C21.1772 5.94622 21.3506 6.11936 21.4268 6.31982C21.5014 6.51652 21.5118 6.73191 21.457 6.93506C21.4012 7.14209 21.2465 7.33178 20.9365 7.71045C20.3494 8.42772 20.0556 8.78672 20.0342 9.10596C20.0135 9.41676 20.1387 9.72007 20.373 9.92529C20.6138 10.136 21.0754 10.1825 21.998 10.2749C22.4853 10.3237 22.7291 10.3476 22.915 10.4546C23.0971 10.5595 23.2419 10.7191 23.3281 10.9106C23.4161 11.1063 23.416 11.3516 23.416 11.8413V13.1587C23.416 13.648 23.416 13.8928 23.3281 14.0884C23.2419 14.2802 23.0974 14.4405 22.915 14.5454C22.7291 14.6524 22.4852 14.6764 21.998 14.7251C21.0753 14.8173 20.6139 14.8639 20.373 15.0747C20.1388 15.2799 20.0136 15.5824 20.0342 15.8931C20.0554 16.2124 20.3492 16.5718 20.9365 17.2896C21.2465 17.6684 21.4012 17.8579 21.457 18.0649C21.5117 18.268 21.5014 18.4835 21.4268 18.6802C21.3506 18.8806 21.1771 19.0538 20.8311 19.3999L19.9004 20.3306C19.5539 20.6771 19.3805 20.8502 19.1797 20.9263C18.9833 21.0007 18.7683 21.012 18.5654 20.9575C18.3581 20.9017 18.1684 20.7463 17.7891 20.436C17.0706 19.8483 16.7113 19.5537 16.3916 19.5327C16.0814 19.5124 15.7792 19.6378 15.5742 19.8716C15.3631 20.1125 15.3169 20.575 15.2246 21.4985C15.1759 21.9857 15.1519 22.2296 15.0449 22.4155C14.9401 22.5975 14.7804 22.7423 14.5889 22.8286C14.3931 22.9167 14.1473 22.9165 13.6572 22.9165H12.3408C11.8511 22.9165 11.6058 22.9166 11.4102 22.8286C11.2186 22.7423 11.059 22.5976 10.9541 22.4155C10.8471 22.2296 10.8232 21.9858 10.7744 21.4985C10.682 20.5759 10.6355 20.1143 10.4248 19.8735C10.2196 19.6392 9.91627 19.514 9.60547 19.5347C9.28623 19.5561 8.92723 19.8499 8.20996 20.437C7.83129 20.747 7.6416 20.9017 7.43457 20.9575C7.23142 21.0123 7.01604 21.0019 6.81934 20.9272C6.61888 20.8511 6.44573 20.6777 6.09961 20.3315L5.16895 19.4009C4.82243 19.0544 4.64936 18.8809 4.57324 18.6802C4.49881 18.4838 4.48747 18.2687 4.54199 18.0659C4.59778 17.8586 4.75319 17.6688 5.06348 17.2896C5.65123 16.5711 5.9458 16.2118 5.9668 15.8921C5.98708 15.5819 5.86168 15.2797 5.62793 15.0747C5.38701 14.8636 4.9245 14.8174 4.00098 14.7251C3.51383 14.6764 3.26994 14.6524 3.08398 14.5454C2.90197 14.4406 2.75717 14.2809 2.6709 14.0894C2.58278 13.8936 2.58301 13.6477 2.58301 13.1577V11.8423C2.58301 11.3521 2.58273 11.1065 2.6709 10.9106C2.75712 10.7192 2.90205 10.5594 3.08398 10.4546C3.26992 10.3476 3.51385 10.3237 4.00098 10.2749C4.92455 10.1824 5.38707 10.1355 5.62793 9.92432C5.86165 9.71927 5.98722 9.41719 5.9668 9.10693C5.94572 8.78734 5.65106 8.42852 5.06348 7.71045C4.75329 7.33138 4.5988 7.14127 4.54297 6.93408C4.48837 6.73122 4.49881 6.51627 4.57324 6.31982C4.64936 6.11914 4.82253 5.94554 5.16895 5.59912L6.09961 4.66846C6.44592 4.32214 6.6197 4.14888 6.82031 4.07275C7.01676 3.99829 7.2317 3.98693 7.43457 4.0415C7.64177 4.09726 7.83173 4.2528 8.21094 4.56299C8.92853 5.14997 9.28722 5.44409 9.60645 5.46533C9.91723 5.48594 10.2196 5.35985 10.4248 5.12549C10.6356 4.88472 10.6822 4.42384 10.7744 3.50146C10.8231 3.01438 10.8472 2.77035 10.9541 2.58447C11.0591 2.40214 11.2192 2.25765 11.4111 2.17139C11.6067 2.08351 11.8514 2.0835 12.3408 2.0835H13.6572ZM13 8.3335C10.6988 8.3335 8.83301 10.1993 8.83301 12.5005C8.83318 14.8015 10.6989 16.6665 13 16.6665C15.3009 16.6663 17.1658 14.8014 17.166 12.5005C17.166 10.1994 15.301 8.33367 13 8.3335Z" fill="#212121"/>
</g>
</svg>
