<svg width="24" height="24" viewBox="0 0 24 24" fill="none" xmlns="http://www.w3.org/2000/svg">
<g id="user$">
<path id="Vector" fill-rule="evenodd" clip-rule="evenodd" d="M7.63574 6.28571C7.63574 3.91878 9.58967 2 12 2C14.4103 2 16.3642 3.91878 16.3642 6.28571C16.3642 8.65265 14.4103 10.5714 12 10.5714C9.58967 10.5714 7.63574 8.65265 7.63574 6.28571Z" fill="#212121"/>
<path id="Vector_2" d="M4.33826 17.5859C5.33046 14.3538 8.38523 12 11.9999 12C15.6147 12 18.6696 14.3539 19.6617 17.5861C20.0413 18.8227 19.1679 19.9935 17.8955 20.226C16.5398 20.4738 14.5521 20.7195 11.9999 20.7195C9.44774 20.7195 7.46001 20.4737 6.10428 20.2258C4.83193 19.9932 3.95867 18.8224 4.33826 17.5859Z" fill="#212121"/>
</g>
</svg>
