<svg width="50" height="51" viewBox="0 0 50 51" fill="none" xmlns="http://www.w3.org/2000/svg">
<path d="M6.25 15.0835H38.95C40.6302 15.0835 41.4702 15.0835 42.112 15.4105C42.6765 15.6981 43.1354 16.157 43.423 16.7215C43.75 17.3633 43.75 18.2033 43.75 19.8835V21.3335H6.25V15.0835Z" fill="#F4F4F4"/>
<path d="M6.25 23.4165H43.75V37.3665C43.75 39.0467 43.75 39.8867 43.423 40.5285C43.1354 41.093 42.6765 41.5519 42.112 41.8395C41.4702 42.1665 40.6302 42.1665 38.95 42.1665H11.05C9.36984 42.1665 8.52976 42.1665 7.88803 41.8395C7.32354 41.5519 6.8646 41.093 6.57698 40.5285C6.25 39.8867 6.25 39.0467 6.25 37.3665V23.4165Z" fill="#F4F4F4"/>
<path d="M6.25 12.8335C6.25 10.9479 6.25 10.0051 6.83579 9.41928C7.42157 8.8335 8.36438 8.8335 10.25 8.8335H19.1765C19.994 8.8335 20.4027 8.8335 20.7703 8.98574C21.1378 9.13798 21.4268 9.42701 22.0049 10.0051L27.0833 15.0835H6.25V12.8335Z" fill="#F4F4F4"/>
</svg>
