<svg width="22" height="18" viewBox="0 0 22 18" fill="none" xmlns="http://www.w3.org/2000/svg">
<path d="M5.60156 1.9079C6.62006 1.01196 8.19593 1.21459 11.3477 1.61981L13.9268 1.95087C15.5887 2.16455 16.4197 2.2721 16.918 2.83856C17.4161 3.40505 17.416 4.24302 17.416 5.91864V12.0807C17.416 13.7566 17.4163 14.5953 16.918 15.1618C16.4197 15.728 15.5885 15.8349 13.9268 16.0485L11.3477 16.3796L10.2383 16.5202C7.81089 16.8183 6.49283 16.8755 5.60156 16.0915C4.58324 15.1955 4.58301 13.6069 4.58301 10.4294V9.99969H9.54004L7.53418 12.0505L8.24902 12.7497L8.96484 13.4489L12.6309 9.69891L13.3145 8.99969L12.6309 8.30048L8.96484 4.55048L8.24902 5.24969L7.53418 5.94891L9.54004 7.99969H4.58301V7.57098C4.58301 4.39315 4.58315 2.80389 5.60156 1.9079Z" fill="#212121"/>
</svg>
